<svg id="Layer_1" enable-background="new 0 0 512 512" height="512" viewBox="0 0 512 512" width="512" xmlns="http://www.w3.org/2000/svg"><g><circle cx="255.704" cy="256.168" fill="#8cf2ff" r="185"/><path d="m255.704 71.168c-5.051 0-10.052.21-15 .607 95.157 7.636 170 87.271 170 184.393s-74.843 176.756-170 184.393c4.948.397 9.949.607 15 .607 102.173 0 185-82.827 185-185s-82.827-185-185-185z" fill="#63e9ff"/><path d="m306.546 353.871c-8.595 14.293-8.091 13.811-9.152 14.287-10.679 4.79-11.183 4.61-11.557 6.394-1.544 7.366-2.869 21.016-9.986 24.959-4.132 2.289-10.637 7.833-13.954 14.956 0 0-6.935 12.481-20.636 9.807-3.434-.67-3.709-14.794-3.709-14.794-.472-1.882 3.072-8.828 2.782-10.652l-5.395-33.904c-.599-3.763-11.239-4.103-12.82-6.981-7.812-14.216-7.324-13.147-7.397-13.919-1.472-15.571-1.717-15.371-.9-16.512 6.598-9.215 6.4-8.695 6.459-9.734.58-10.112.206-11.189 1.941-12.158 6.489-3.623 12.457-1.362 13.159-1.234 0 0 28.619 3.276 33.235 10.11 6.558 9.71 5.614 11.99 8.144 11.583 15.636-2.513 15.021-2.687 16.23-1.823 12.926 9.253 13.251 9.014 13.316 10.814.671 18.688.813 17.849.24 18.801z" fill="#64cc56"/><path d="m272.574 179.757c-.438 3.191-2.49 1.92-28.951 11.372-.377.131-1.412 3.639-1.955 5.55-1.201 4.288 12.415 15.589 6.716 18.623l-16.922 9.022c-2.709 1.438-2.227 8.768-4.761 10.285-7.514 4.498-7.654 4.384-8.154 5.445-2.832 5.953-3.349 8.452-5.953 8.347l-17.737-.675c-.675-.026-6.97 2.008-6.164 5.401 1.096 4.594 3.647 15.124 4.173 15.572 13.616 17.842 13.336 11.372 8.294 24.9-.596 1.605-2.446 2.332-3.981 1.587-16.352-7.935-15.633-7.724-16.334-7.838-15.852-2.797-16.115-2.446-17.01-4.13-2.788-5.226-13.476-25.26-13.634-25.391-25.348-20.797-25.26-19.903-25.707-21.551-4.787-17.527-4.603-16.773-4.454-17.606 3.691-20.841 3.472-19.631 3.586-19.938l4.533-12.906c.798-2.271-4.796-13.003-4.945-15.221-1.35-19.35-.982-19.114-2.323-20.201-.044-.035-3.84-5.208-8.391-11.372 13.678-16.694 30.214-30.959 48.863-42.033 17.106 7.654 33.712 14.721 34.466 14.169 12.398-9.057 11.644-8.794 12.687-8.969 16.527-2.779 18.737-4.024 19.675-.693 3.639 12.915 4.524 13.897 2.525 15.493-29.083 23.243-28.302 21.981-28.206 24.067.587 12.512.447 12.1.912 12.924 9.855 17.755 9.531 18.149 11.547 18.43 13.511 1.876 14.283 2.508 15.624.544 14.432-21.227 13.301-19.727 13.985-20.175 7.347-4.822 8.049-5.795 9.978-4.875 9.539 4.568 9.925 4.472 10.495 5.839l8.049 19.228c.508 1.19-.535 6.846-.526 6.776z" fill="#ffd54f"/><path d="m399.303 139.521c-6.558 1.938-11.452 11.334-11.952 12.613-5.054 12.949-24.109 26.557-27.985 25.619-5.743-2.008-7.919-4.968-8.399-10.069-.708-7.514-2.159-12.977-3.779-18.12s3.031-19.989 3.031-19.989c1.675-4.629-4.584-13.052-6.232-17.761v-18.262c21.315 11.6 40.104 27.268 55.316 45.969z" fill="#f5f5f5"/><path d="m383.31 159.266c1.7-2.336 3.109-4.745 4.041-7.131.5-1.28 5.394-10.676 11.952-12.614-15.212-18.702-34.001-34.37-55.316-45.969v18.264c.349.996.909 2.164 1.551 3.421 14.777 12.575 27.546 27.434 37.772 44.029z" fill="#e6e6e6"/><g><path d="m293.016 361.989c-1.492.664-2.757 1.219-3.83 1.69-6.372 2.797-9.571 4.201-10.664 9.412-.247 1.183-.492 2.519-.751 3.95-.743 4.094-1.668 9.189-3.279 12.782-1.695 3.782-.002 8.223 3.782 9.918 3.786 1.694 8.226.003 9.924-3.78 2.356-5.257 3.462-11.347 4.35-16.241.075-.414.149-.819.221-1.214.717-.321 1.575-.698 2.457-1.085 1.412-.62 3.148-1.382 5.332-2.361 2.935-1.299 3.419-2.11 8.054-9.869 1.118-1.871 2.557-4.28 4.444-7.415 1.586-2.586 1.563-3.182 1.178-13.139-.095-2.455-.217-5.638-.367-9.784-.184-5.139-2.631-6.865-9.893-11.991-1.711-1.208-3.863-2.726-6.621-4.699-3.422-2.464-5.25-2.16-14.038-.709-1.09.18-2.339.387-3.771.621-.999-1.877-2.457-4.434-4.691-7.741-5.619-8.316-26.037-11.895-38.1-13.31-8.094-2.169-14.374-.077-18.232 2.076-5.032 2.809-5.228 6.982-5.524 13.299-.048 1.03-.105 2.228-.179 3.623-.46.651-1.125 1.572-1.885 2.625-.844 1.171-1.913 2.653-3.265 4.54-2.285 3.187-2.11 4.946-1.269 13.397.205 2.067.469 4.715.791 8.118.126 2.082.159 2.143 4.206 9.474 1.017 1.842 2.351 4.261 4.101 7.445 2.178 3.965 6.483 5.285 10.28 6.45.599.184 1.419.435 2.131.681l4.817 30.249c-.208.665-.563 1.651-.821 2.366-1.156 3.21-2.174 6.036-1.871 8.839.439 17.675 5.778 20.764 9.772 21.543 9.222 1.92 19.591-1.676 26.143-9.93 2.625-3.209 2.15-7.937-1.062-10.561-3.209-2.623-7.941-2.146-10.565 1.061-2.485 3.039-5.351 4.679-8.549 4.903-.377-2.088-.68-5.124-.735-7.79-.001-.013-.001-.025-.001-.038.939-3.066 3.271-8.2 2.695-11.655l-5.403-33.927c-1.067-6.692-7.734-8.738-12.145-10.091-.691-.212-1.618-.497-2.301-.741-1.381-2.511-2.475-4.49-3.338-6.055-1.177-2.132-2.024-3.666-2.489-4.532-.287-3.01-.524-5.395-.713-7.295-.187-1.875-.349-3.503-.442-4.601.872-1.214 1.602-2.226 2.213-3.074 3.694-5.121 4.462-6.186 4.62-9.177.118-2.06.197-3.751.263-5.146.028-.602.058-1.212.086-1.773 1.934-.454 3.653-.121 4.898.225.483.134.836.212 1.033.248.16.029.324.053.486.072 12.402 1.425 25.393 4.7 28.033 7.051 2.509 3.732 3.77 6.209 4.609 7.858 1.297 2.548 3.999 7.851 10.832 6.752 4.558-.728 8.074-1.334 12.272-1.998 2.012 1.434 3.681 2.611 5.063 3.587 1.401.988 2.692 1.9 3.632 2.583.112 3.061.207 5.523.284 7.509.106 2.738.187 4.831.215 6.06-1.533 2.551-2.75 4.589-3.725 6.22-1.154 1.94-2.096 3.519-2.698 4.495z"/><path d="m72.277 229.266c3.356.707 8.029-1.684 8.762-5.996 5.004-26.712 15.868-51.091 31.115-71.913 1.077 1.46 1.783 2.415 2.279 3.066.125 1.347.28 3.729.461 6.55.167 2.58.38 5.874.674 10.078.137 2.024.936 4.03 2.586 8.018.645 1.561 1.745 4.218 2.232 5.762l-3.932 11.189c-.339.853-.55 2.045-3.242 17.238l-.718 4.046c-.464 2.391-.464 2.391 3.873 18.259l.728 2.664c.915 3.372 1.95 4.2 8.688 9.585 3.488 2.788 9.241 7.386 18.439 14.921 1.213 2.224 12.875 24.024 12.875 24.024 2.444 4.598 5.231 5.071 14.463 6.64 1.939.329 4.327.735 7.281 1.254.53.254 1.447.704 2.655 1.296 2.303 1.13 6.071 2.978 12.335 6.015 2.371 1.042 5.067 1.519 8.429.299 2.714-1.088 4.855-3.283 5.873-6.018.588-1.577 1.108-2.87 1.545-3.955 3.69-9.171 2.527-11.996-3.637-19.19-1.628-1.9-3.818-4.455-6.663-8.142-.313-1.026-1.033-3.587-2.513-9.646l15.375.585c7.175.297 9.805-5.522 11.724-9.766.228-.504.473-1.047.747-1.639.535-.323 4.256-2.524 5.811-3.455 3.94-2.357 4.972-6.603 5.724-9.704.09-.371.203-.838.314-1.256l15.342-8.175c8.727-4.697 5.098-14.99-.248-21.506-.708-1.014-1.682-2.408-2.266-3.391 14.756-6.172 29.194-5.758 30.638-16.238 1.049-3.988.78-8.954.02-10.738l-8.054-19.231c-1.568-3.759-3.724-4.775-9.488-7.491-1.249-.588-2.791-1.315-4.715-2.236-5.444-2.597-9.205-.067-13.969 3.131-.902.606-1.966 1.321-3.222 2.146-1.756 1.006-1.914 1.24-8.505 10.952-1.581 2.329-3.593 5.295-6.161 9.072-.983-.134-6.089-.889-7.757-1.128-.723-1.262-5.759-10.474-7.739-14.048-.048-.848-.109-2.236-.186-3.95-.052-1.173-.114-2.585-.193-4.291 1.82-1.524 5.171-4.179 9.604-7.691 3.908-3.096 9.023-7.149 15.712-12.492 5.549-4.427 4.061-9.501 1.811-17.183-.495-1.686-1.093-3.729-1.795-6.218-1.29-4.581-4.782-7.303-9.579-7.466-2.448-.087-5.326.436-10.554 1.38-2.206.398-4.853.876-8.077 1.418-2.429.402-3.276 1.031-7.35 4.054-1.291.958-3.064 2.273-5.538 4.09-3.006-1.137-8.349-3.335-15.927-6.616 47.624-23.894 110.806-23.403 158.219 1.687v13.804c0 .844.143 1.683.421 2.48 1.078 3.334 5.052 9.449 6.076 13.321-2.002 6.443-4.945 17.885-2.946 24.23 1.633 5.174 2.847 9.974 3.47 16.579.771 8.19 5.157 13.573 13.406 16.455.57.133 1.937.423 2.604.423 10.624 0 29.81-17.557 34.851-30.323.493-1.087 1.846-3.343 3.458-5.249 2.506 3.345 4.908 6.792 7.198 10.339 2.251 3.483 6.897 4.481 10.381 2.235 3.484-2.248 4.486-6.893 2.237-10.375-97.202-146.677-317.688-101.418-351.461 68.673-.762 4.074 1.923 7.995 5.999 8.758zm316.053-91.36c-5.082 5.065-7.788 11.347-7.821 11.432-3.342 8.558-15.529 18.247-20.319 20.551-1.427-.742-1.494-1.45-1.637-2.966-.785-8.328-2.413-14.33-4.061-19.568-.334-2.069 1.066-9.386 2.967-15.507 2.139-6.255-1.393-12.983-4.237-18.399-.593-1.131-1.202-2.288-1.624-3.201v-3.712c13.509 8.659 25.878 19.184 36.732 31.37zm-226.535-32.554c8.228 3.655 15.382 6.745 20.761 8.968 10.543 4.357 13.728 5.673 17.633 2.811 4.133-3.017 6.814-5.006 8.589-6.324.81-.601 1.518-1.127 2.024-1.496 2.772-.472 5.123-.897 7.12-1.257 1.469-.265 2.903-.524 4.124-.729.262.902.504 1.727.724 2.482.325 1.107.641 2.187.898 3.097-5.545 4.423-9.906 7.878-13.336 10.594-10.382 8.959-14.805 9.251-15.384 17.842.131 2.773.225 4.91.298 6.565.294 6.649.332 7.504 1.551 9.657 2.206 3.971 3.899 7.071 5.223 9.493 5.17 9.46 6.559 12.003 11.87 12.741 2.584.359 4.698.671 6.436.929 8.192 1.213 12.707 1.881 16.448-3.599 3.345-4.917 5.855-8.616 7.746-11.403 2.585-3.809 4.173-6.148 4.933-7.236 1.05-.693 1.954-1.301 2.741-1.829.484-.325.975-.655 1.422-.951.936.443 1.759.831 2.483 1.173 1.033.487 1.988.937 2.698 1.282l6.922 16.528c-.028.342-.075.761-.132 1.206-.914.298-2.035.647-3.187 1.007-4.371 1.363-10.979 3.424-21.263 7.095-4.101 1.429-5.083 4.876-6.717 10.616-1.466 5.228 1.781 9.876 4.921 14.371.377.54.85 1.216 1.309 1.899l-12.738 6.788c-4.365 2.316-5.505 7.01-6.259 10.117-.089.366-.201.83-.311 1.24-3.325 1.936-8.787 4.877-9.62 7.788-.556 1.168-1.027 2.209-1.443 3.129-.121.269-.25.555-.379.837l-14.822-.564c-2.727-.12-8.445 1.848-11.585 5.662-2.161 2.626-2.936 5.814-2.182 8.982 3.691 15.47 4.406 17.494 5.959 18.978 3.182 4.138 5.588 6.944 7.365 9.019.62.724 1.29 1.505 1.788 2.118-.153.4-.334.854-.515 1.303-3.652-1.778-6.116-2.986-7.797-3.81-4.321-2.12-4.621-2.266-6.106-2.505-3.249-.573-5.846-1.014-7.927-1.368-1.851-.315-3.55-.603-4.756-.829-13.16-24.65-13.183-24.668-14.481-25.745-9.926-8.14-16.03-13.02-19.678-15.935-1.716-1.372-3.108-2.484-3.956-3.187l-.354-1.296c-1.884-6.892-2.993-10.95-3.406-12.618l.551-3.113c1.739-9.812 2.457-13.863 2.676-15.029l4.421-12.581c1.367-3.889-.11-7.795-3.064-14.933-.507-1.225-1.246-3.011-1.516-3.825-.275-3.943-.475-7.049-.635-9.503-.635-9.826-.791-12.228-3.624-14.822-.512-.693-1.431-1.94-2.616-3.548l-1.769-2.398c11.563-13.194 25.028-24.618 39.924-33.884z"/><path d="m423.474 177.276c-3.82 1.613-5.608 6.016-3.995 9.834 43.888 105.722-20.099 219.73-126.621 242.77-113.214 23.778-216.194-63.677-214.846-175.92.047-4.145-3.275-7.543-7.423-7.591-4.189-.064-7.547 3.273-7.594 7.418-1.459 119.14 105.106 211.662 223.927 192.481 122.865-20.317 194.66-150.031 146.39-265-1.614-3.818-6.018-5.607-9.838-3.992z"/><path d="m242.951 15.342c19.359-1.019 38.937.33 58.005 3.988.479.091.954.136 1.424.136 3.529 0 6.677-2.499 7.366-6.092.782-4.071-1.886-8.004-5.958-8.785-15.877-3.046-32.1-4.589-48.219-4.589-4.448 0-8.96.119-13.408.353-4.142.218-7.321 3.75-7.103 7.889.217 4.14 3.779 7.303 7.893 7.1z"/><path d="m476.384 158.821.115.262c1.238 2.809 3.989 4.481 6.875 4.481 1.011 0 2.038-.205 3.023-.639 3.794-1.671 5.516-6.1 3.844-9.894l-.111-.251c-8.371-18.963-18.975-36.828-31.516-53.1-2.531-3.283-7.246-3.895-10.531-1.365-3.285 2.529-3.897 7.242-1.366 10.525 11.807 15.318 21.79 32.14 29.667 49.981z"/><path d="m128.653 49.928c1.301 0 2.619-.338 3.82-1.049 8.286-4.906 16.985-9.377 25.855-13.289 8.913-3.93 18.121-7.351 27.369-10.167 3.967-1.208 6.203-5.401 4.995-9.366s-5.407-6.202-9.371-4.992c-9.821 2.99-19.597 6.622-29.055 10.793-9.415 4.152-18.649 8.899-27.447 14.108-3.569 2.112-4.747 6.716-2.634 10.282 1.404 2.365 3.903 3.68 6.468 3.68z"/><path d="m356.342 37.055c17.693 8.11 34.37 18.338 49.565 30.399 1.38 1.096 3.028 1.628 4.665 1.628 2.212 0 4.403-.973 5.885-2.838 2.579-3.246 2.038-7.967-1.21-10.545-16.141-12.812-33.854-23.675-52.645-32.288-3.769-1.727-8.227-.074-9.955 3.693-1.73 3.768-.075 8.223 3.695 9.951z"/><path d="m7.517 246.72c3.911 0 7.209-3.029 7.483-6.987 1.338-19.343 5.028-38.544 10.97-57.07 1.265-3.947-.91-8.172-4.859-9.437-3.947-1.266-8.176.908-9.443 4.856-6.308 19.675-10.228 40.068-11.65 60.615-.285 4.135 2.836 7.719 6.973 8.005.177.012.352.018.526.018z"/><path d="m424.908 428.092c-13.833 13.605-29.34 25.526-46.087 35.431-3.569 2.111-4.751 6.713-2.639 10.281 1.402 2.368 3.903 3.684 6.469 3.684 1.3 0 2.617-.338 3.817-1.047 17.796-10.524 34.272-23.192 48.974-37.65 2.956-2.907 2.994-7.659.085-10.613-2.91-2.957-7.663-2.994-10.619-.086z"/><path d="m494.843 324.946c-3.951-1.269-8.177.904-9.445 4.851-5.946 18.508-14.118 36.278-24.289 52.816-2.171 3.531-1.068 8.153 2.465 10.324 1.227.753 2.584 1.112 3.925 1.112 2.522 0 4.986-1.27 6.404-3.576 10.801-17.564 19.479-36.434 25.792-56.087 1.27-3.946-.903-8.173-4.852-9.44z"/><path d="m325.585 486.951c-18.615 5.658-37.881 9.039-57.259 10.05-4.142.216-7.324 3.747-7.108 7.886.209 4.006 3.526 7.114 7.493 7.114.131 0 .264-.003.397-.01 20.595-1.074 41.066-4.667 60.846-10.678 3.967-1.206 6.206-5.398 5-9.364-1.209-3.967-5.405-6.201-9.369-4.998z"/><path d="m508.177 212.111c-.716-4.082-4.601-6.814-8.694-6.095-4.085.716-6.815 4.606-6.099 8.689 2.388 13.603 3.598 27.508 3.598 41.327-.001 5.549-.198 11.168-.583 16.7-.288 4.135 2.831 7.721 6.968 8.009.178.012.354.019.53.019 3.909 0 7.207-3.026 7.482-6.984.411-5.877.619-11.846.62-17.743.001-14.687-1.286-29.465-3.822-43.922z"/><path d="m210.322 492.98c-19.074-3.67-37.705-9.644-55.375-17.755-3.764-1.728-8.225-.079-9.957 3.688-1.731 3.767-.079 8.223 3.69 9.952 18.764 8.614 38.548 14.957 58.803 18.854.48.092.957.137 1.428.137 3.528 0 6.673-2.497 7.365-6.088.783-4.07-1.882-8.005-5.954-8.788z"/><path d="m86.406 84.336c2.954-2.909 2.99-7.661.079-10.613-2.911-2.953-7.665-2.988-10.619-.079-14.686 14.461-27.618 30.725-38.435 48.338-2.169 3.533-1.064 8.154 2.471 10.322 1.226.752 2.581 1.11 3.922 1.11 2.523 0 4.989-1.272 6.406-3.58 10.182-16.581 22.354-31.888 36.176-45.498z"/><path d="m105.398 444.799c-15.223-12.095-28.947-26.027-40.788-41.409-2.528-3.283-7.242-3.899-10.531-1.371-3.286 2.528-3.9 7.24-1.372 10.524 12.586 16.348 27.169 31.153 43.346 44.006 1.381 1.097 3.03 1.63 4.668 1.63 2.211 0 4.401-.971 5.883-2.835 2.579-3.245 2.04-7.965-1.206-10.545z"/><path d="m18.046 297.76c-.719-4.082-4.617-6.805-8.697-6.091-4.084.718-6.813 4.61-6.094 8.692 3.561 20.228 9.605 40.101 17.966 59.067 1.238 2.809 3.99 4.481 6.875 4.481 1.011 0 2.039-.205 3.024-.639 3.794-1.671 5.515-6.101 3.843-9.894-7.874-17.864-13.566-36.576-16.917-55.616z"/></g></g></svg>