<svg id="Layer_1" enable-background="new 0 0 512 512" height="512" viewBox="0 0 512 512" width="512" xmlns="http://www.w3.org/2000/svg"><g id="XMLID_128_"><g id="XMLID_2030_"><g id="XMLID_2031_"><g id="XMLID_2032_"><g id="XMLID_2033_"><g id="XMLID_2034_"><g id="XMLID_2035_"><g id="XMLID_2037_"><g id="XMLID_2038_"><g id="XMLID_2039_"><g id="XMLID_2060_"><g id="XMLID_2061_"><g id="XMLID_2063_"><g id="XMLID_2064_"><g id="XMLID_2065_"><g id="XMLID_2067_"><g id="XMLID_2071_"><circle id="XMLID_2074_" cx="256" cy="256" fill="#00ecce" r="256"/></g></g></g></g></g></g></g></g></g></g></g></g></g></g></g></g><path id="XMLID_1177_" d="m512 256c0-23.115-3.082-45.506-8.825-66.806l-90.161-90.21-307.696 328.145 72.788 72.787c24.563 7.839 50.731 12.084 77.894 12.084 141.385 0 256-114.615 256-256z" fill="#00c6cb"/><g id="XMLID_3665_"><g id="XMLID_292_"><path id="XMLID_433_" d="m175.543 292.219h58.471v30h-58.471z" fill="#57545c" transform="matrix(.707 -.707 .707 .707 -157.258 234.783)"/></g><g id="XMLID_3619_"><path id="XMLID_3837_" d="m180.849 305.02h58.47v15h-58.47z" fill="#262628" transform="matrix(.707 -.707 .707 .707 -159.453 240.087)"/></g><g id="XMLID_416_"><circle id="XMLID_2127_" cx="316.437" cy="195.561" fill="#fff" r="136.581"/><path id="XMLID_3836_" d="m413.013 292.138c-49.752 49.752-128.347 53.097-181.967 10.027-3.861-3.097-7.602-6.442-11.186-10.027l193.153-193.153c53.337 53.337 53.337 139.816 0 193.153z" fill="#bdfefb"/><circle id="XMLID_2284_" cx="316.437" cy="195.561" fill="#bcfbff" r="107.832"/><g id="XMLID_670_"><path id="XMLID_3832_" d="m392.684 271.809c-42.108 42.108-110.387 42.108-152.495 0l152.495-152.495c42.108 42.108 42.108 110.387 0 152.495z" fill="#45f6ff"/></g></g><path id="XMLID_3068_" d="m110.049 431.861-29.912-29.912c-5.921-5.921-5.921-15.61 0-21.532l74.635-74.635c5.921-5.921 15.61-5.921 21.532 0l29.912 29.912c5.921 5.921 5.921 15.61 0 21.532l-74.635 74.635c-5.921 5.921-15.611 5.921-21.532 0z" fill="#ff2929"/><path id="XMLID_3833_" d="m206.219 357.227-74.635 74.635c-5.926 5.926-15.613 5.926-21.538 0l-14.955-14.955 96.166-96.167 14.955 14.955c5.926 5.926 5.926 15.614.007 21.532z" fill="#d0004f"/><g id="XMLID_3534_"><path id="XMLID_3607_" d="m352.452 227.008c-18.766 11.084-47.672 13.518-66.661 13.867-6.104.111-11.181.005-14.569-.1-.105-3.388-.21-8.465-.1-14.569.348-18.989 2.783-47.895 13.867-66.661 27.144-45.968 89.395-28.884 94.452-27.412.215.059.325.097.325.097s.038.11.097.325c1.473 5.058 18.557 67.309-27.411 94.453z" fill="#91dc5a"/><path id="XMLID_3606_" d="m352.45 227.008c-18.765 11.08-47.67 13.521-66.658 13.867-6.102.111-11.181.004-14.568-.101l108.544-108.544s.035.111.095.323c1.474 5.06 18.555 67.308-27.413 94.455z" fill="#58c025"/><path id="XMLID_3605_" d="m349.95 210.959-33.517-5.363 14.565-16.771 43.541-8.654-31.63-5.061 36.955-42.553c-.059-.215-.097-.325-.097-.325s-.111-.038-.325-.097l-42.553 36.955-5.061-31.63-8.655 43.54-16.771 14.565-5.363-33.517-9.171 46.139-48.574 42.184 18.333 18.333 42.184-48.574z" fill="#58c025"/><path id="XMLID_3603_" d="m285.792 240.875-24.166 27.829-9.166-9.166 127.308-127.308s.035.111.095.323l-36.953 42.557 31.626 5.063-43.539 8.648-14.569 16.775 33.521 5.364-46.14 9.169z" fill="#009200"/></g></g></g></svg>