<svg height="512" viewBox="0 0 128 128" width="512" xmlns="http://www.w3.org/2000/svg"><g><g><path d="m77.828 63.083a13.76 13.76 0 0 1 -27.52 0c0-7.6 13.76-28.433 13.76-28.433s13.76 20.834 13.76 28.433z" fill="#a9d13c"/><path d="m69.956 53.026a1.751 1.751 0 0 0 -2.475-.053l-1.663 1.594v-6.467a1.75 1.75 0 0 0 -3.5 0v15.378l-1.663-1.594a1.75 1.75 0 1 0 -2.422 2.528l4.085 3.914v25.118a1.75 1.75 0 0 0 3.5 0v-34.028l4.082-3.916a1.751 1.751 0 0 0 .056-2.474z" fill="#94be24"/><g fill="#36d9f6"><path d="m64.068 103.123a39.079 39.079 0 0 1 -26.374-67.914v3.082a3.44 3.44 0 0 0 6.88 0v-10.761a3.444 3.444 0 0 0 -3.44-3.44h-10.143a3.44 3.44 0 0 0 0 6.88h1.189a45.946 45.946 0 0 0 31.888 79.03 3.441 3.441 0 0 0 0-6.881z"/><path d="m63.932 24.884a39.079 39.079 0 0 1 26.374 67.916v-3.084a3.44 3.44 0 0 0 -6.88 0v10.761a3.444 3.444 0 0 0 3.44 3.44h10.143a3.44 3.44 0 0 0 0-6.88h-1.189a45.945 45.945 0 0 0 -31.888-79.037 3.44 3.44 0 0 0 0 6.88z"/></g></g><g fill="#003239"><path d="m64.068 32.9a1.752 1.752 0 0 0 -1.461.786c-1.438 2.177-14.049 21.5-14.049 29.4a15.526 15.526 0 0 0 13.76 15.4v14.954a1.75 1.75 0 0 0 3.5 0v-34.028l4.082-3.912a1.75 1.75 0 1 0 -2.422-2.527l-1.663 1.594v-6.467a1.75 1.75 0 0 0 -3.5 0v15.374l-1.663-1.593a1.75 1.75 0 1 0 -2.422 2.527l4.085 3.914v6.626a12.019 12.019 0 0 1 -10.257-11.868c0-5.151 7.669-18.344 12.01-25.2 4.341 6.861 12.01 20.054 12.01 25.205a11.937 11.937 0 0 1 -5.766 10.261 1.75 1.75 0 0 0 1.824 2.988 15.416 15.416 0 0 0 7.442-13.254c0-7.9-12.612-27.221-14.05-29.4a1.748 1.748 0 0 0 -1.46-.78z"/><path d="m64.068 101.37a37.274 37.274 0 0 1 -24.561-9.242 1.75 1.75 0 1 0 -2.3 2.633 40.77 40.77 0 0 0 26.861 10.109 1.69 1.69 0 0 1 0 3.38 44.256 44.256 0 0 1 -44.206-44.206 43.741 43.741 0 0 1 13.53-31.815 1.75 1.75 0 0 0 -1.212-3.012h-1.189a1.691 1.691 0 0 1 0-3.381h10.143a1.693 1.693 0 0 1 1.691 1.69v10.762a1.691 1.691 0 0 1 -3.381 0v-3.083a1.75 1.75 0 0 0 -2.929-1.293 40.308 40.308 0 0 0 -13.273 30.132 40.827 40.827 0 0 0 4.906 19.394 1.75 1.75 0 0 0 3.078-1.668 37.311 37.311 0 0 1 -4.484-17.726 36.809 36.809 0 0 1 9.312-24.691 5.191 5.191 0 0 0 10.271-1.065v-10.762a5.2 5.2 0 0 0 -5.191-5.19h-10.143a5.19 5.19 0 0 0 -2.384 9.8 47.18 47.18 0 0 0 -12.245 31.908 47.76 47.76 0 0 0 47.706 47.706 5.19 5.19 0 0 0 0-10.38z"/><path d="m31.973 86.381a1.75 1.75 0 0 0 -.324 2.453l.392.5a1.75 1.75 0 1 0 2.744-2.172l-.358-.459a1.751 1.751 0 0 0 -2.454-.322z"/><path d="m84.964 25.081c.313.171.624.344.932.522a1.75 1.75 0 1 0 1.746-3.034c-.333-.191-.669-.38-1.006-.562a1.75 1.75 0 1 0 -1.672 3.074z"/><path d="m99.393 95.864a47.674 47.674 0 0 0 -6.026-69.427 1.75 1.75 0 1 0 -2.167 2.751 44.164 44.164 0 0 1 3.4 66.583 1.75 1.75 0 0 0 1.212 3.012h1.189a1.691 1.691 0 0 1 0 3.381h-10.135a1.693 1.693 0 0 1 -1.691-1.69v-10.762a1.691 1.691 0 0 1 3.381 0v3.088a1.75 1.75 0 0 0 2.929 1.293 40.308 40.308 0 0 0 13.273-30.132 40.872 40.872 0 0 0 -40.826-40.831 1.69 1.69 0 0 1 0-3.38 43.952 43.952 0 0 1 14.681 2.506 1.75 1.75 0 0 0 1.166-3.3 47.462 47.462 0 0 0 -15.847-2.7 5.19 5.19 0 0 0 0 10.38 37.368 37.368 0 0 1 37.326 37.326 36.809 36.809 0 0 1 -9.312 24.691 5.191 5.191 0 0 0 -10.271 1.065v10.762a5.2 5.2 0 0 0 5.191 5.19h10.143a5.19 5.19 0 0 0 2.384-9.8z"/></g></g></svg>